<?xml version="1.0" encoding="UTF-8"?>
<svg xmlns="http://www.w3.org/2000/svg" xmlns:xlink="http://www.w3.org/1999/xlink" id="a" width="493.84" height="493.83" viewBox="0 0 493.84 493.83">
  <defs>
    <clipPath id="b">
      <rect width="493.84" height="493.83" fill="auto"></rect>
    </clipPath>
  </defs>
  <g clip-path="url(#b)">
    <g id="c">
      <path id="d" d="M454.27,33.16h-51.66v-10.19C402.61,10.28,392.32-.02,379.62-.02s-22.99,10.29-22.99,22.99v10.19h-86.73v-10.19C269.9,10.28,259.61-.02,246.91-.02s-22.99,10.29-22.99,22.99v10.19h-86.73v-10.19C137.19,10.28,126.91-.02,114.21-.02s-22.99,10.28-22.99,22.98v10.21H39.56C17.71,33.19,.01,50.9,0,72.75V454.27c.02,21.85,17.73,39.55,39.58,39.57H454.27c21.84-.02,39.55-17.73,39.57-39.57V72.74c-.02-21.84-17.73-39.55-39.57-39.57m-84.84-10.19c0-5.63,4.56-10.19,10.19-10.19s10.19,4.56,10.19,10.19v49.76c0,5.63-4.56,10.19-10.19,10.19s-10.19-4.56-10.19-10.19h0V22.98Zm-132.7,0c0-5.63,4.56-10.19,10.19-10.19s10.19,4.56,10.19,10.19v49.76c0,5.63-4.56,10.19-10.19,10.19s-10.19-4.56-10.19-10.19h0V22.98Zm-132.7,0c0-5.63,4.57-10.19,10.19-10.18,5.62,0,10.18,4.56,10.18,10.18v49.76c0,5.63-4.56,10.19-10.18,10.19s-10.19-4.56-10.19-10.18h0V22.98h0ZM481.04,454.27c-.02,14.78-12,26.76-26.78,26.78H39.58c-14.78-.02-26.76-12-26.78-26.78V145.49H481.05V454.27h-.01Zm0-321.56H12.8v-59.96c.02-14.78,12-26.76,26.78-26.78h51.66v26.78c0,12.69,10.29,22.99,22.99,22.99s22.99-10.29,22.99-22.99v-26.78h86.73v26.78c0,12.69,10.29,22.99,22.99,22.99s22.99-10.29,22.99-22.99v-26.78h86.73v26.78c0,12.69,10.29,22.99,22.99,22.99s22.99-10.29,22.99-22.99v-26.78h51.66c14.78,.02,26.76,12,26.78,26.78v59.96h-.04Z"></path>
      <path id="e" d="M404.51,253.3h33.17c3.53,0,6.4-2.86,6.4-6.4v-33.17c0-3.53-2.86-6.4-6.4-6.4h-33.17c-3.53,0-6.4,2.86-6.4,6.4v33.17c0,3.53,2.86,6.4,6.4,6.4m6.4-33.17h20.38v20.38h-20.38v-20.38Z"></path>
      <path id="f" d="M271.8,373.21h-33.17c-3.53,0-6.4,2.86-6.4,6.4v33.17c0,3.53,2.86,6.4,6.4,6.4h33.17c3.53,0,6.4-2.86,6.4-6.4v-33.17c0-3.53-2.86-6.4-6.4-6.4m-6.4,33.17h-20.38v-20.38h20.38v20.38Z"></path>
      <path id="g" d="M155.69,253.3h33.17c3.53,0,6.4-2.86,6.4-6.4v-33.17c0-3.53-2.86-6.4-6.4-6.4h-33.17c-3.53,0-6.4,2.86-6.4,6.4v33.17c0,3.53,2.86,6.4,6.4,6.4m6.4-33.17h20.38v20.38h-20.38v-20.38Z"></path>
      <path id="h" d="M72.75,336.24h33.17c3.53,0,6.4-2.86,6.4-6.4v-33.17c0-3.53-2.86-6.4-6.4-6.4h-33.17c-3.53,0-6.4,2.86-6.4,6.4v33.17c0,3.53,2.86,6.4,6.4,6.4m6.4-33.17h20.38v20.38h-20.38v-20.38Z"></path>
      <path id="i" d="M155.69,336.24h33.17c3.53,0,6.4-2.86,6.4-6.4v-33.17c0-3.53-2.86-6.4-6.4-6.4h-33.17c-3.53,0-6.4,2.86-6.4,6.4v33.17c0,3.53,2.86,6.4,6.4,6.4m6.4-33.17h20.38v20.38h-20.38v-20.38Z"></path>
      <path id="j" d="M72.75,419.18h33.17c3.53,0,6.4-2.86,6.4-6.4v-33.17c0-3.53-2.86-6.4-6.4-6.4h-33.17c-3.53,0-6.4,2.86-6.4,6.4v33.17c0,3.53,2.86,6.4,6.4,6.4m6.4-33.17h20.38v20.38h-20.38v-20.38Z"></path>
      <path id="k" d="M155.69,419.18h33.17c3.53,0,6.4-2.86,6.4-6.4v-33.17c0-3.53-2.86-6.4-6.4-6.4h-33.17c-3.53,0-6.4,2.86-6.4,6.4v33.17c0,3.53,2.86,6.4,6.4,6.4m6.4-33.17h20.38v20.38h-20.38v-20.38Z"></path>
      <path id="l" d="M269.78,285.2l-5.1,31.28c-.37,2.45,1.31,4.73,3.75,5.1,.96,.15,1.95-.02,2.8-.49l26.46-14.62,26.46,14.63c2.17,1.18,4.89,.38,6.07-1.79,.47-.87,.64-1.86,.49-2.83l-5.09-31.27,21.58-22.12c1.72-1.78,1.67-4.61-.11-6.33-.63-.61-1.41-1.01-2.27-1.18l-.15-.02-29.64-4.53-13.3-28.33c-1.07-2.23-3.74-3.18-5.97-2.11-.93,.44-1.67,1.19-2.11,2.11l-13.29,28.33-29.64,4.53c-2.44,.39-4.11,2.68-3.72,5.12,.14,.91,.56,1.75,1.2,2.41l21.57,22.12h0Zm14.28-25.72c1.47-.22,2.74-1.17,3.37-2.51l10.27-21.88,10.27,21.87c.63,1.35,1.89,2.29,3.37,2.51l23.4,3.57-17.08,17.51c-.99,1.02-1.44,2.44-1.21,3.84l3.98,24.43-20.57-11.38c-1.34-.75-2.98-.75-4.32,0l-20.57,11.37,3.98-24.43c.23-1.4-.22-2.82-1.21-3.84l-17.08-17.51,23.41-3.57v.02Z" fill="#e3061a"></path>
      <path id="m" d="M404.51,336.24h33.17c3.53,0,6.4-2.86,6.4-6.4v-33.17c0-3.53-2.86-6.4-6.4-6.4h-33.17c-3.53,0-6.4,2.86-6.4,6.4v33.17c0,3.53,2.86,6.4,6.4,6.4m6.4-33.17h20.38v20.38h-20.38v-20.38Z"></path>
      <path id="n" d="M404.51,419.18h33.17c3.53,0,6.4-2.86,6.4-6.4v-33.17c0-3.53-2.86-6.4-6.4-6.4h-33.17c-3.53,0-6.4,2.86-6.4,6.4v33.17c0,3.53,2.86,6.4,6.4,6.4m6.4-33.17h20.38v20.38h-20.38v-20.38Z"></path>
      <path id="o" d="M354.74,373.21h-33.17c-3.53,0-6.4,2.86-6.4,6.4v33.17c0,3.53,2.86,6.4,6.4,6.4h33.17c3.53,0,6.4-2.86,6.4-6.4v-33.17c0-3.53-2.86-6.4-6.4-6.4m-6.4,33.17h-20.38v-20.38h20.38v20.38Z"></path>
    </g>
  </g>
</svg>
