<?xml version="1.0" encoding="UTF-8"?>
<svg xmlns="http://www.w3.org/2000/svg" xmlns:xlink="http://www.w3.org/1999/xlink" id="a" width="538.82" height="501.18" viewBox="0 0 538.82 501.18">
  <defs>
    <clipPath id="b">
      <rect y=".03" width="538.66" height="501.13" fill="currentColor"></rect>
    </clipPath>
  </defs>
  <g clip-path="url(#b)">
    <g id="c">
      <path fill="currentColor" id="d" d="M236.81,.03c-2.95,.65-5.06,3.25-5.09,6.26v31.52c-2.43,.34-5.17,.92-7.83,1.56-2.72,.64-5.4,1.42-8.03,2.35-.58,.21-1.02,.58-1.56,.78l-28.19-28.19c-2.49-2.29-6.32-2.29-8.81,0l-37.59,37.59c-2.29,2.49-2.29,6.32,0,8.81l27.8,27.79c-1.72,2.45-3.29,5-4.7,7.63-1.58,3.37-2.96,6.83-4.11,10.37h-33.47c-3.41,.13-6.14,2.86-6.26,6.26v50.11c.13,3.41,2.86,6.14,6.26,6.26h33.47c1.16,3.54,2.53,7,4.11,10.37,1.42,2.57,2.99,5.05,4.7,7.44l-27.8,27.8c-2.29,2.49-2.29,6.32,0,8.81l37.59,37.59c2.49,2.29,6.32,2.29,8.81,0l28.19-28.19c.55,.21,.98,.58,1.56,.78,2.63,.93,5.31,1.71,8.03,2.35,2.66,.65,5.4,1.23,7.83,1.57v31.72c.13,3.41,2.86,6.14,6.26,6.26h50.11c3.41-.13,6.14-2.86,6.26-6.26v-31.72c5.45-.87,10.82-2.18,16.05-3.92,.58-.21,1.02-.58,1.56-.78l28.19,28.19c2.49,2.29,6.32,2.29,8.81,0l37.59-37.59c2.29-2.49,2.29-6.32,0-8.81l-27.99-27.99c1.71-2.32,3.27-4.73,4.7-7.23,1.58-3.37,2.95-6.84,4.11-10.38h33.47c3.41-.13,6.14-2.86,6.26-6.26v-50.12c-.13-3.41-2.86-6.14-6.26-6.26h-33.47c-1.16-3.54-2.53-7-4.11-10.37-1.41-2.57-2.98-5.05-4.7-7.44l27.99-27.99c2.29-2.49,2.29-6.32,0-8.81l-37.57-37.59c-2.49-2.29-6.32-2.29-8.81,0l-28.19,28.19c-.55-.21-.98-.58-1.56-.78-5.24-1.74-10.61-3.05-16.05-3.92V6.27c-.13-3.41-2.86-6.15-6.27-6.27h-51.29V.03Zm7.44,12.53h37.6v31.32c.23,3.61,3.34,6.35,6.95,6.13,.16,0,.33-.03,.49-.05-.47,.09,1.38-.06,3.33,.2,2.24,.34,4.46,.8,6.66,1.37,2.32,.53,4.6,1.19,6.85,1.96,1.1,.41,2.15,.93,3.13,1.57,2.57,1.9,6.13,1.66,8.41-.58l26.82-27.02,28.97,28.97-27.02,26.82c-2.34,2.44-2.43,6.27-.2,8.81,2.24,3.01,4.2,6.22,5.87,9.59,2.07,4.01,3.77,8.21,5.09,12.53,.7,2.81,3.18,4.81,6.08,4.9h31.32v37.57h-31.34c-2.84,.06-5.3,1.97-6.08,4.7-1.31,4.32-3.02,8.51-5.09,12.53-1.68,3.42-3.65,6.69-5.87,9.79-2.12,2.51-2.03,6.2,.2,8.61l27.02,27.01-28.97,28.58-26.82-26.82c-2.28-2.24-5.85-2.48-8.42-.58-.98,.64-2.03,1.16-3.13,1.57-2.25,.77-4.54,1.42-6.85,1.96-2.41,.58-4.71,1.11-6.66,1.37s-3.8,.11-3.32,.2c-3.58-.49-6.89,2.01-7.38,5.6-.03,.22-.05,.44-.06,.66v31.32h-37.59v-31.32c-.14-3.61-3.18-6.43-6.79-6.3-.15,0-.3,.02-.44,.03,.47-.09-1.38,.06-3.33-.2-2.31-.34-4.59-.8-6.85-1.37-2.25-.53-4.47-1.19-6.66-1.96-1.15-.44-2.26-.96-3.33-1.57-2.53-1.8-5.97-1.56-8.22,.58l-27,26.82-28.58-28.58,26.82-27.01c2.23-2.41,2.32-6.1,.2-8.61-2.22-3.1-4.19-6.37-5.87-9.79-2.12-4.02-3.89-8.21-5.28-12.53-.77-2.73-3.24-4.64-6.08-4.7h-31.31v-37.59h31.32c2.89-.09,5.37-2.09,6.08-4.89,1.4-4.32,3.16-8.51,5.29-12.53,1.66-3.37,3.63-6.58,5.87-9.59,2.23-2.54,2.15-6.37-.2-8.81l-26.82-26.82,28.57-28.97,27.01,27c2.25,2.14,5.7,2.38,8.22,.58,1.07-.61,2.18-1.13,3.33-1.57,2.18-.77,4.4-1.42,6.66-1.96,2.41-.58,4.9-1.11,6.85-1.37s3.8-.11,3.33-.2c3.59,.39,6.82-2.2,7.21-5.79,.01-.09,.02-.19,.02-.28V12.56h0Zm18.8,75.17c-27.68,0-50.11,22.44-50.11,50.11s22.44,50.11,50.11,50.11,50.11-22.44,50.11-50.11c-.05-27.66-22.46-50.06-50.11-50.11m0,12.53c20.76,0,37.59,16.83,37.59,37.58s-16.83,37.59-37.58,37.59-37.59-16.83-37.59-37.58h0c-.05-20.71,16.7-37.54,37.41-37.59h.18M118.4,281.73c-3.46,.06-6.22,2.91-6.16,6.37,.04,2.4,1.44,4.56,3.62,5.58l56.38,31.32c3.03,1.73,6.88,.68,8.61-2.35s.68-6.88-2.35-8.61h0l-56.38-31.32c-1.11-.71-2.41-1.05-3.72-.98h0Zm-50.11,25.04c-3.45,.16-6.13,3.08-5.97,6.54,.11,2.33,1.5,4.42,3.62,5.4l81.44,43.85c3.08,1.62,6.89,.44,8.52-2.64s.44-6.89-2.64-8.52l-81.43-43.85c-.9-.49-1.91-.76-2.93-.78h-.61Zm357.64,25.26c-47.75,0-92.31,17.8-119.99,25.05h-86.72c-8.47,.1-16.76,2.39-24.08,6.66-7.05,4.1-13.5,9.86-13.5,18.4v18.79c0,8.52,6.48,14.1,13.5,18.2,7.3,4.33,15.59,6.69,24.08,6.85h87.69c3.46,0,6.27-2.81,6.27-6.27s-2.81-6.27-6.27-6.27h-87.69c-6.2-.24-12.25-1.98-17.62-5.09-3.24-1.58-5.86-4.2-7.44-7.44v-18.79c1.54-3.31,4.16-6.01,7.44-7.63,5.38-3.05,11.43-4.73,17.62-4.89h87.69c.53,0,1.05-.07,1.56-.2,29.32-7.6,72.61-24.86,117.45-24.86,38.2,0,68.12,14.73,103.95,30.73,3.17,1.46,6.91,.07,8.37-3.1s.07-6.91-3.1-8.37c-.06-.03-.12-.06-.19-.08-35.56-15.89-67.61-31.72-109.04-31.72h0l.02,.03Zm-399.33,12.34c-1.86-.06-3.71,.2-5.48,.78-3.3,1.33-6.15,3.57-8.22,6.46-2,2.56-3.55,5.21-5.48,8.22-.14,.12-.27,.25-.39,.39-2.31,4.28-4.12,7.58-5.48,10.77-1.66,3.42-1.94,7.34-.78,10.96,1.57,3.54,4.16,6.54,7.44,8.61,3.32,2.55,7.52,5.35,13.31,9.2,32.57,20.56,62.95,42.43,90.63,59.9,16.51,10.6,33.64,20.21,51.29,28.78,16.15,7.56,30.69,12.73,43.26,12.73,88.78,0,130.89-6.26,231.77-6.26,49.46,0,65.88,6.08,81.43,6.08,10.01-.68,18.01-8.59,18.79-18.6v-62.66c0-3.46-2.81-6.27-6.27-6.27s-6.27,2.81-6.27,6.27h0v62.64c-.44,1.38-1.18,2.65-2.16,3.72-1.09,1.2-2.53,2.02-4.11,2.35-11.86,0-30.96-6.08-81.43-6.08-101.37,0-143.56,6.26-231.77,6.26-8.95,0-22.6-4.34-37.97-11.55-17.18-8.34-33.84-17.69-49.92-27.99-31.09-18.62-60.19-41.02-90.44-59.9-5.66-3.76-9.91-6.61-12.53-8.62-1.25-.88-2.37-1.93-3.33-3.13,.03,.07-.23,.34,.58-1.57s2.67-5.14,5.09-9.59c1.86-2.92,3.32-5.54,4.5-7.05,.6-.97,1.49-1.72,2.54-2.15,1.1-.39,5.32-.13,15.66,5.48,35.76,17.62,70.15,36.68,100.61,50.31,3.21,1.35,6.91-.15,8.27-3.36,1.32-3.14-.08-6.76-3.18-8.19-34.72-15.4-69.21-34.37-99.83-49.92-8.31-4.51-14.54-7.05-20.16-7.05h0l.02,.03Z"></path>
      <path id="e" d="M268.69,72.43c.11,0,.22-.03,.33-.03-.53-.05-1.06-.09-1.59-.12,.41,.1,.84,.15,1.26,.15" fill="currentColor"></path>
      <path id="f" d="M328.5,132.19c0,.08,.02,.16,.02,.24,0-.09,0-.19-.02-.29v.03" fill="currentColor"></path>
      <path id="g" d="M338.85,130.86c-3.43-37.09-32.92-66.4-70.03-69.63-.34-.03-.69-.05-1.04-.08-3.11,.06-5.58,2.63-5.52,5.74,.05,2.59,1.86,4.81,4.38,5.38,.53,.03,1.06,.08,1.59,.12,31.66,2.94,56.7,28.08,59.49,59.76,0,.09,0,.19,.02,.29,.1,3.1,2.7,5.54,5.8,5.44,2.89-.09,5.24-2.37,5.43-5.26-.04-.58-.08-1.16-.13-1.75" fill="currentColor"></path>
    </g>
  </g>
</svg>
