<?xml version="1.0" encoding="UTF-8"?>
<svg xmlns="http://www.w3.org/2000/svg" xmlns:xlink="http://www.w3.org/1999/xlink" id="a" width="451.32" height="567.15" viewBox="0 0 451.32 567.15">
  <defs>
    <clipPath id="b">
      <rect x="0" y=".02" width="451.31" height="567.12" fill="currentColor"></rect>
    </clipPath>
  </defs>
  <g clip-path="url(#b)">
    <g id="c">
      <path id="d" d="M337.46,564.97c1.31-1.38,1.99-3.24,1.89-5.14l-7.16-133.31h0c-.21-3.83-3.48-6.76-7.3-6.56-3.83,.21-6.76,3.48-6.56,7.3l6.76,126h-57.61v-43.34c.01-23.17-18.76-41.96-41.93-41.97-23.17-.01-41.96,18.76-41.97,41.93v43.39h-57.62l5.87-109.26c.21-3.83-2.73-7.1-6.56-7.3-3.83-.21-7.1,2.73-7.3,6.56l-6.25,116.57c-.21,3.83,2.73,7.09,6.55,7.3,.12,0,.25,.01,.37,.01h71.88c3.83,0,6.94-3.11,6.94-6.94v-50.29c0-15.5,12.57-28.07,28.07-28.07s28.07,12.57,28.07,28.07v43.35h-34.5c-3.83,0-6.94,3.11-6.94,6.94s3.11,6.94,6.94,6.94h113.31c1.91,0,3.73-.79,5.04-2.17h0Z"></path>
      <path id="e" d="M431.38,372.51c-1.94,.37-3.94-.05-5.57-1.16l-137.49-93.71h0c-3.08-2.29-7.42-1.65-9.71,1.42-2.29,3.08-1.65,7.42,1.42,9.71,.16,.12,.32,.23,.49,.33l137.48,93.71c3.52,2.42,7.69,3.71,11.96,3.71,11.77,.02,21.33-9.5,21.36-21.27,.01-7.06-3.47-13.67-9.31-17.65l-182.68-124.51c-.2-2.39-.67-4.76-1.38-7.06l10.9-15.99,50.42,34.36c3.16,2.16,7.48,1.35,9.64-1.82h0L446.49,60.05c2.16-3.17,1.34-7.48-1.83-9.64l-39.29-26.78h0c-3.26-2.02-7.54-1.02-9.56,2.24-1.9,3.06-1.14,7.07,1.75,9.23l33.56,22.88-50.27,73.73-27.99-19.75c-3.13-2.21-7.46-1.46-9.67,1.67s-1.46,7.46,1.67,9.67l28.16,19.86-51.69,75.85-50.42-34.36h0c-3.17-2.16-7.48-1.34-9.64,1.82h0l-11.13,16.34h0c-3.45-3.64-7.66-6.48-12.33-8.31L358.49,17.47c2.26-3.43,6.87-4.37,10.3-2.11s4.37,6.87,2.11,10.3l-.12,.18-93.64,137.4h0c-2.04,3.25-1.05,7.53,2.19,9.57,3.08,1.93,7.12,1.16,9.28-1.77L382.25,33.64h0c6.81-9.6,4.54-22.9-5.06-29.71-9.6-6.81-22.9-4.54-29.71,5.06-.15,.21-.3,.43-.44,.65l-124.51,182.68h0c-2.39,.2-4.76,.66-7.05,1.36l-15.99-10.9,34.35-50.39c2.16-3.16,1.35-7.48-1.82-9.64h0L59.48,5.15c-3.17-2.16-7.48-1.34-9.64,1.83L22.47,47.13c-2.25,3.1-1.55,7.44,1.56,9.69s7.44,1.55,9.69-1.56c.08-.11,.15-.22,.22-.33L57.39,20.53l73.72,50.25-19.74,27.99c-2.18,3.16-1.38,7.48,1.78,9.65,3.11,2.14,7.36,1.41,9.57-1.65l19.86-28.16,75.86,51.69-34.36,50.42c-2.16,3.16-1.35,7.48,1.82,9.64h0l16.34,11.14c-3.64,3.45-6.48,7.66-8.31,12.33L16.89,93.15c-3.39-2.31-4.27-6.94-1.96-10.33s6.94-4.27,10.33-1.96h0l137.24,93.54h0c3.1,2.25,7.44,1.55,9.69-1.56,2.25-3.1,1.55-7.44-1.56-9.69-.11-.08-.22-.15-.33-.22L33.09,69.4c-9.81-6.51-23.04-3.83-29.54,5.98-6.39,9.63-3.93,22.6,5.53,29.23l182.68,124.51c.2,2.21,.61,4.4,1.24,6.53l-11.07,16.31-50.12-34.15c-3.17-2.16-7.48-1.34-9.65,1.83L4.58,392.18c-2.16,3.16-1.34,7.48,1.82,9.64l39.66,27.04h0c3.23,2.06,7.52,1.12,9.58-2.11,1.98-3.1,1.2-7.2-1.78-9.36l-33.93-23.12,50.27-73.74,27.99,19.74c3.09,2.27,7.43,1.61,9.7-1.48s1.61-7.43-1.48-9.7c-.07-.05-.15-.11-.23-.16l-28.16-19.86,51.69-75.85,50.12,34.16c.35,.23,.72,.43,1.11,.6,.11,.05,.23,.08,.34,.13h0c.28,.11,.57,.19,.87,.26,.12,.03,.24,.06,.36,.08,.37,.07,.75,.11,1.12,.12h.09c.39,0,.78-.04,1.16-.11l.24-.04c.38-.08,.76-.2,1.12-.34l.15-.06c.34-.14,.66-.31,.97-.51,.05-.03,.11-.06,.17-.1h0c.33-.22,.64-.47,.93-.75l.17-.17c.29-.29,.56-.6,.79-.94l.02-.03,11.15-16.43h0c3.5,3.79,7.82,6.74,12.63,8.61l-120.67,177.06c-2.27,3.42-6.88,4.36-10.3,2.1-3.42-2.27-4.36-6.88-2.1-10.3,.04-.06,.08-.12,.12-.17l94.95-139.85c2.15-3.17,1.33-7.49-1.84-9.64-3.17-2.15-7.49-1.33-9.64,1.84l-94.94,139.83c-6.47,9.83-3.75,23.05,6.08,29.52,9.61,6.33,22.51,3.89,29.14-5.52l124.51-182.68h0c2.39-.2,4.76-.66,7.05-1.36l16,10.88-34.36,50.43c-2.16,3.16-1.34,7.48,1.82,9.64h0l172.52,117.58c1.15,.79,2.51,1.2,3.91,1.2,.43,0,.87-.04,1.29-.12,1.81-.34,3.4-1.39,4.44-2.91l26.39-38.72c2.04-3.25,1.05-7.53-2.19-9.57-3.08-1.93-7.12-1.16-9.28,1.77l-22.49,32.99-73.71-50.25,19.74-27.99c2.18-3.16,1.38-7.48-1.78-9.65-3.11-2.14-7.36-1.41-9.57,1.65l-19.86,28.16-75.85-51.68,34.36-50.42h0c2.16-3.16,1.35-7.48-1.82-9.64h-.01l-16.34-11.14c3.65-3.45,6.49-7.66,8.33-12.33l177.04,120.67c3.39,2.31,4.27,6.94,1.95,10.33-1.11,1.63-2.82,2.75-4.76,3.12h-.02l.05-.02Zm-205.84-126.34c-11.09,.01-20.09-8.97-20.1-20.06s8.97-20.09,20.06-20.1c11.09,0,20.09,8.97,20.1,20.06,0,5.33-2.11,10.45-5.88,14.22-3.76,3.76-8.86,5.88-14.17,5.88h0Z"></path>
      <path id="f" d="M245.89,452.8c3.83,0,6.94-3.11,6.94-6.94h0v-55.3c0-3.83-3.1-6.94-6.93-6.94h-40.72c-3.83,0-6.94,3.11-6.94,6.94h0v55.3c0,3.83,3.1,6.94,6.93,6.94h40.72Zm-33.77-55.3h26.82v41.43h-26.83v-41.43h0Z" fill="currentColor"></path>
    </g>
  </g>
</svg>
